<svg width="25" height="25" viewBox="0 0 25 25" fill="none" xmlns="http://www.w3.org/2000/svg">
<g clip-path="url(#clip0_31_2003)">
<path d="M24.4873 12.5097C24.4873 11.5035 24.4057 10.7693 24.229 10.0078H12.739V14.5493H19.4834C19.3475 15.6779 18.6132 17.3776 16.9815 18.5198L16.9586 18.6718L20.5915 21.4862L20.8432 21.5113C23.1547 19.3765 24.4873 16.2354 24.4873 12.5097Z" fill="#4285F4"/>
<path d="M12.739 24.4757C16.0432 24.4757 18.817 23.3879 20.8431 21.5115L16.9814 18.5199C15.948 19.2406 14.561 19.7437 12.739 19.7437C9.50282 19.7437 6.75615 17.6089 5.77703 14.6582L5.63352 14.6704L1.85598 17.5939L1.80658 17.7312C3.81899 21.7289 7.95265 24.4757 12.739 24.4757Z" fill="#34A853"/>
<path d="M5.77705 14.6582C5.5187 13.8967 5.36919 13.0808 5.36919 12.2378C5.36919 11.3947 5.5187 10.5789 5.76346 9.81743L5.75662 9.65526L1.93173 6.68481L1.80659 6.74434C0.977171 8.40326 0.501251 10.2662 0.501251 12.2378C0.501251 14.2094 0.977171 16.0723 1.80659 17.7312L5.77705 14.6582Z" fill="#FBBC05"/>
<path d="M12.7391 4.7319C15.037 4.7319 16.5871 5.72451 17.471 6.55402L20.9248 3.18182C18.8036 1.21018 16.0433 0 12.7391 0C7.95268 0 3.819 2.74667 1.80658 6.74431L5.76347 9.81739C6.75618 6.86673 9.50287 4.7319 12.7391 4.7319Z" fill="#EB4335"/>
</g>
<defs>
<clipPath id="clip0_31_2003">
<rect width="24" height="24.56" fill="white" transform="translate(0.5)"/>
</clipPath>
</defs>
</svg>
