<svg width="40" height="40" viewBox="0 0 40 40" fill="none" xmlns="http://www.w3.org/2000/svg">
<mask id="path-1-inside-1_56_2741" fill="white">
<path d="M19.9999 31.6667C20.3296 31.6667 20.6518 31.569 20.9259 31.3859C21.2 31.2027 21.4136 30.9424 21.5397 30.6379C21.6659 30.3333 21.6989 29.9982 21.6346 29.6749C21.5703 29.3516 21.4115 29.0547 21.1784 28.8216C20.9453 28.5885 20.6484 28.4297 20.3251 28.3654C20.0018 28.3011 19.6667 28.3341 19.3621 28.4603C19.0576 28.5864 18.7973 28.8 18.6141 29.0741C18.431 29.3482 18.3333 29.6704 18.3333 30.0001C18.3333 30.4421 18.5088 30.866 18.8214 31.1786C19.134 31.4912 19.5579 31.6667 19.9999 31.6667ZM28.3333 31.6667C28.6629 31.6667 28.9851 31.569 29.2592 31.3859C29.5333 31.2027 29.7469 30.9424 29.8731 30.6379C29.9992 30.3333 30.0322 29.9982 29.9679 29.6749C29.9036 29.3516 29.7449 29.0547 29.5118 28.8216C29.2787 28.5885 28.9817 28.4297 28.6584 28.3654C28.3351 28.3011 28 28.3341 27.6954 28.4603C27.3909 28.5864 27.1306 28.8 26.9475 29.0741C26.7643 29.3482 26.6666 29.6704 26.6666 30.0001C26.6666 30.4421 26.8422 30.866 27.1547 31.1786C27.4673 31.4912 27.8912 31.6667 28.3333 31.6667ZM28.3333 25.0001C28.6629 25.0001 28.9851 24.9023 29.2592 24.7192C29.5333 24.5361 29.7469 24.2758 29.8731 23.9712C29.9992 23.6667 30.0322 23.3316 29.9679 23.0083C29.9036 22.685 29.7449 22.388 29.5118 22.1549C29.2787 21.9218 28.9817 21.7631 28.6584 21.6988C28.3351 21.6345 28 21.6675 27.6954 21.7936C27.3909 21.9198 27.1306 22.1334 26.9475 22.4075C26.7643 22.6815 26.6666 23.0038 26.6666 23.3334C26.6666 23.7754 26.8422 24.1994 27.1547 24.5119C27.4673 24.8245 27.8912 25.0001 28.3333 25.0001ZM19.9999 25.0001C20.3296 25.0001 20.6518 24.9023 20.9259 24.7192C21.2 24.5361 21.4136 24.2758 21.5397 23.9712C21.6659 23.6667 21.6989 23.3316 21.6346 23.0083C21.5703 22.685 21.4115 22.388 21.1784 22.1549C20.9453 21.9218 20.6484 21.7631 20.3251 21.6988C20.0018 21.6345 19.6667 21.6675 19.3621 21.7936C19.0576 21.9198 18.7973 22.1334 18.6141 22.4075C18.431 22.6815 18.3333 23.0038 18.3333 23.3334C18.3333 23.7754 18.5088 24.1994 18.8214 24.5119C19.134 24.8245 19.5579 25.0001 19.9999 25.0001ZM31.6666 5.00008H29.9999V3.33341C29.9999 2.89139 29.8243 2.46746 29.5118 2.1549C29.1992 1.84234 28.7753 1.66675 28.3333 1.66675C27.8912 1.66675 27.4673 1.84234 27.1547 2.1549C26.8422 2.46746 26.6666 2.89139 26.6666 3.33341V5.00008H13.3333V3.33341C13.3333 2.89139 13.1577 2.46746 12.8451 2.1549C12.5325 1.84234 12.1086 1.66675 11.6666 1.66675C11.2246 1.66675 10.8006 1.84234 10.4881 2.1549C10.1755 2.46746 9.99992 2.89139 9.99992 3.33341V5.00008H8.33325C7.00717 5.00008 5.7354 5.52687 4.79772 6.46455C3.86004 7.40223 3.33325 8.674 3.33325 10.0001V33.3334C3.33325 34.6595 3.86004 35.9313 4.79772 36.8689C5.7354 37.8066 7.00717 38.3334 8.33325 38.3334H31.6666C32.9927 38.3334 34.2644 37.8066 35.2021 36.8689C36.1398 35.9313 36.6666 34.6595 36.6666 33.3334V10.0001C36.6666 8.674 36.1398 7.40223 35.2021 6.46455C34.2644 5.52687 32.9927 5.00008 31.6666 5.00008ZM33.3333 33.3334C33.3333 33.7754 33.1577 34.1994 32.8451 34.5119C32.5325 34.8245 32.1086 35.0001 31.6666 35.0001H8.33325C7.89122 35.0001 7.4673 34.8245 7.15474 34.5119C6.84218 34.1994 6.66659 33.7754 6.66659 33.3334V18.3334H33.3333V33.3334ZM33.3333 15.0001H6.66659V10.0001C6.66659 9.55805 6.84218 9.13413 7.15474 8.82157C7.4673 8.50901 7.89122 8.33341 8.33325 8.33341H9.99992V10.0001C9.99992 10.4421 10.1755 10.866 10.4881 11.1786C10.8006 11.4912 11.2246 11.6667 11.6666 11.6667C12.1086 11.6667 12.5325 11.4912 12.8451 11.1786C13.1577 10.866 13.3333 10.4421 13.3333 10.0001V8.33341H26.6666V10.0001C26.6666 10.4421 26.8422 10.866 27.1547 11.1786C27.4673 11.4912 27.8912 11.6667 28.3333 11.6667C28.7753 11.6667 29.1992 11.4912 29.5118 11.1786C29.8243 10.866 29.9999 10.4421 29.9999 10.0001V8.33341H31.6666C32.1086 8.33341 32.5325 8.50901 32.8451 8.82157C33.1577 9.13413 33.3333 9.55805 33.3333 10.0001V15.0001ZM11.6666 25.0001C11.9962 25.0001 12.3185 24.9023 12.5925 24.7192C12.8666 24.5361 13.0802 24.2758 13.2064 23.9712C13.3325 23.6667 13.3655 23.3316 13.3012 23.0083C13.2369 22.685 13.0782 22.388 12.8451 22.1549C12.612 21.9218 12.315 21.7631 11.9917 21.6988C11.6684 21.6345 11.3333 21.6675 11.0288 21.7936C10.7242 21.9198 10.4639 22.1334 10.2808 22.4075C10.0977 22.6815 9.99992 23.0038 9.99992 23.3334C9.99992 23.7754 10.1755 24.1994 10.4881 24.5119C10.8006 24.8245 11.2246 25.0001 11.6666 25.0001ZM11.6666 31.6667C11.9962 31.6667 12.3185 31.569 12.5925 31.3859C12.8666 31.2027 13.0802 30.9424 13.2064 30.6379C13.3325 30.3333 13.3655 29.9982 13.3012 29.6749C13.2369 29.3516 13.0782 29.0547 12.8451 28.8216C12.612 28.5885 12.315 28.4297 11.9917 28.3654C11.6684 28.3011 11.3333 28.3341 11.0288 28.4603C10.7242 28.5864 10.4639 28.8 10.2808 29.0741C10.0977 29.3482 9.99992 29.6704 9.99992 30.0001C9.99992 30.4421 10.1755 30.866 10.4881 31.1786C10.8006 31.4912 11.2246 31.6667 11.6666 31.6667Z"/>
</mask>
<path d="M19.9999 31.6667C20.3296 31.6667 20.6518 31.569 20.9259 31.3859C21.2 31.2027 21.4136 30.9424 21.5397 30.6379C21.6659 30.3333 21.6989 29.9982 21.6346 29.6749C21.5703 29.3516 21.4115 29.0547 21.1784 28.8216C20.9453 28.5885 20.6484 28.4297 20.3251 28.3654C20.0018 28.3011 19.6667 28.3341 19.3621 28.4603C19.0576 28.5864 18.7973 28.8 18.6141 29.0741C18.431 29.3482 18.3333 29.6704 18.3333 30.0001C18.3333 30.4421 18.5088 30.866 18.8214 31.1786C19.134 31.4912 19.5579 31.6667 19.9999 31.6667ZM28.3333 31.6667C28.6629 31.6667 28.9851 31.569 29.2592 31.3859C29.5333 31.2027 29.7469 30.9424 29.8731 30.6379C29.9992 30.3333 30.0322 29.9982 29.9679 29.6749C29.9036 29.3516 29.7449 29.0547 29.5118 28.8216C29.2787 28.5885 28.9817 28.4297 28.6584 28.3654C28.3351 28.3011 28 28.3341 27.6954 28.4603C27.3909 28.5864 27.1306 28.8 26.9475 29.0741C26.7643 29.3482 26.6666 29.6704 26.6666 30.0001C26.6666 30.4421 26.8422 30.866 27.1547 31.1786C27.4673 31.4912 27.8912 31.6667 28.3333 31.6667ZM28.3333 25.0001C28.6629 25.0001 28.9851 24.9023 29.2592 24.7192C29.5333 24.5361 29.7469 24.2758 29.8731 23.9712C29.9992 23.6667 30.0322 23.3316 29.9679 23.0083C29.9036 22.685 29.7449 22.388 29.5118 22.1549C29.2787 21.9218 28.9817 21.7631 28.6584 21.6988C28.3351 21.6345 28 21.6675 27.6954 21.7936C27.3909 21.9198 27.1306 22.1334 26.9475 22.4075C26.7643 22.6815 26.6666 23.0038 26.6666 23.3334C26.6666 23.7754 26.8422 24.1994 27.1547 24.5119C27.4673 24.8245 27.8912 25.0001 28.3333 25.0001ZM19.9999 25.0001C20.3296 25.0001 20.6518 24.9023 20.9259 24.7192C21.2 24.5361 21.4136 24.2758 21.5397 23.9712C21.6659 23.6667 21.6989 23.3316 21.6346 23.0083C21.5703 22.685 21.4115 22.388 21.1784 22.1549C20.9453 21.9218 20.6484 21.7631 20.3251 21.6988C20.0018 21.6345 19.6667 21.6675 19.3621 21.7936C19.0576 21.9198 18.7973 22.1334 18.6141 22.4075C18.431 22.6815 18.3333 23.0038 18.3333 23.3334C18.3333 23.7754 18.5088 24.1994 18.8214 24.5119C19.134 24.8245 19.5579 25.0001 19.9999 25.0001ZM31.6666 5.00008H29.9999V3.33341C29.9999 2.89139 29.8243 2.46746 29.5118 2.1549C29.1992 1.84234 28.7753 1.66675 28.3333 1.66675C27.8912 1.66675 27.4673 1.84234 27.1547 2.1549C26.8422 2.46746 26.6666 2.89139 26.6666 3.33341V5.00008H13.3333V3.33341C13.3333 2.89139 13.1577 2.46746 12.8451 2.1549C12.5325 1.84234 12.1086 1.66675 11.6666 1.66675C11.2246 1.66675 10.8006 1.84234 10.4881 2.1549C10.1755 2.46746 9.99992 2.89139 9.99992 3.33341V5.00008H8.33325C7.00717 5.00008 5.7354 5.52687 4.79772 6.46455C3.86004 7.40223 3.33325 8.674 3.33325 10.0001V33.3334C3.33325 34.6595 3.86004 35.9313 4.79772 36.8689C5.7354 37.8066 7.00717 38.3334 8.33325 38.3334H31.6666C32.9927 38.3334 34.2644 37.8066 35.2021 36.8689C36.1398 35.9313 36.6666 34.6595 36.6666 33.3334V10.0001C36.6666 8.674 36.1398 7.40223 35.2021 6.46455C34.2644 5.52687 32.9927 5.00008 31.6666 5.00008ZM33.3333 33.3334C33.3333 33.7754 33.1577 34.1994 32.8451 34.5119C32.5325 34.8245 32.1086 35.0001 31.6666 35.0001H8.33325C7.89122 35.0001 7.4673 34.8245 7.15474 34.5119C6.84218 34.1994 6.66659 33.7754 6.66659 33.3334V18.3334H33.3333V33.3334ZM33.3333 15.0001H6.66659V10.0001C6.66659 9.55805 6.84218 9.13413 7.15474 8.82157C7.4673 8.50901 7.89122 8.33341 8.33325 8.33341H9.99992V10.0001C9.99992 10.4421 10.1755 10.866 10.4881 11.1786C10.8006 11.4912 11.2246 11.6667 11.6666 11.6667C12.1086 11.6667 12.5325 11.4912 12.8451 11.1786C13.1577 10.866 13.3333 10.4421 13.3333 10.0001V8.33341H26.6666V10.0001C26.6666 10.4421 26.8422 10.866 27.1547 11.1786C27.4673 11.4912 27.8912 11.6667 28.3333 11.6667C28.7753 11.6667 29.1992 11.4912 29.5118 11.1786C29.8243 10.866 29.9999 10.4421 29.9999 10.0001V8.33341H31.6666C32.1086 8.33341 32.5325 8.50901 32.8451 8.82157C33.1577 9.13413 33.3333 9.55805 33.3333 10.0001V15.0001ZM11.6666 25.0001C11.9962 25.0001 12.3185 24.9023 12.5925 24.7192C12.8666 24.5361 13.0802 24.2758 13.2064 23.9712C13.3325 23.6667 13.3655 23.3316 13.3012 23.0083C13.2369 22.685 13.0782 22.388 12.8451 22.1549C12.612 21.9218 12.315 21.7631 11.9917 21.6988C11.6684 21.6345 11.3333 21.6675 11.0288 21.7936C10.7242 21.9198 10.4639 22.1334 10.2808 22.4075C10.0977 22.6815 9.99992 23.0038 9.99992 23.3334C9.99992 23.7754 10.1755 24.1994 10.4881 24.5119C10.8006 24.8245 11.2246 25.0001 11.6666 25.0001ZM11.6666 31.6667C11.9962 31.6667 12.3185 31.569 12.5925 31.3859C12.8666 31.2027 13.0802 30.9424 13.2064 30.6379C13.3325 30.3333 13.3655 29.9982 13.3012 29.6749C13.2369 29.3516 13.0782 29.0547 12.8451 28.8216C12.612 28.5885 12.315 28.4297 11.9917 28.3654C11.6684 28.3011 11.3333 28.3341 11.0288 28.4603C10.7242 28.5864 10.4639 28.8 10.2808 29.0741C10.0977 29.3482 9.99992 29.6704 9.99992 30.0001C9.99992 30.4421 10.1755 30.866 10.4881 31.1786C10.8006 31.4912 11.2246 31.6667 11.6666 31.6667Z" fill="#9D9E9E" stroke="#9D9E9E" stroke-width="2" mask="url(#path-1-inside-1_56_2741)"/>
</svg>
