<svg width="25" height="24" viewBox="0 0 25 24" fill="none" xmlns="http://www.w3.org/2000/svg">
<g clip-path="url(#clip0_31_2009)">
<path d="M12.5001 24C19.1275 24 24.5001 18.6274 24.5001 12C24.5001 5.37259 19.1275 0 12.5001 0C5.87262 0 0.500031 5.37259 0.500031 12C0.500031 18.6274 5.87262 24 12.5001 24Z" fill="#2DAAE1"/>
<path d="M20.1942 7.22662C19.6282 7.47778 19.0202 7.64757 18.381 7.72389C19.0334 7.33326 19.5331 6.71423 19.7691 5.97749C19.1494 6.34555 18.4712 6.60466 17.764 6.74357C17.1884 6.13009 16.3677 5.74707 15.4597 5.74707C13.7168 5.74707 12.3034 7.15996 12.3034 8.90383C12.3034 9.15092 12.3312 9.39198 12.3847 9.62342C9.76105 9.49156 7.43502 8.23482 5.87808 6.32518C5.60622 6.79157 5.45061 7.33383 5.45061 7.91239C5.45061 9.00745 6.00798 9.97364 6.8549 10.5396C6.35354 10.5241 5.86318 10.3887 5.42481 10.1449V10.1848C5.42481 11.7145 6.51279 12.9899 7.95703 13.28C7.69172 13.3527 7.4133 13.3906 7.12526 13.3906C6.92161 13.3906 6.72403 13.3714 6.53101 13.3351C6.93273 14.5888 8.09858 15.5014 9.47957 15.5272C8.39917 16.3741 7.03782 16.879 5.55924 16.879C5.30457 16.879 5.05288 16.8638 4.80579 16.834C6.20304 17.7299 7.86205 18.2529 9.64484 18.2529C15.4511 18.2529 18.6266 13.4427 18.6266 9.27125C18.6266 9.1343 18.6236 8.99837 18.617 8.86292C19.2357 8.41543 19.7697 7.86135 20.1942 7.22662Z" fill="white"/>
</g>
<defs>
<clipPath id="clip0_31_2009">
<rect width="24" height="24" fill="white" transform="translate(0.5)"/>
</clipPath>
</defs>
</svg>
